<?xml version="1.0" encoding="utf-8"?>
<!-- Generator: Adobe Illustrator 16.0.0, SVG Export Plug-In . SVG Version: 6.00 Build 0)  -->
<!DOCTYPE svg PUBLIC "-//W3C//DTD SVG 1.1//EN" "http://www.w3.org/Graphics/SVG/1.1/DTD/svg11.dtd">
<svg version="1.1" id="Layer_1" xmlns="http://www.w3.org/2000/svg" xmlns:xlink="http://www.w3.org/1999/xlink" x="0px" y="0px"
	 width="131.135px" height="43.88px" viewBox="0 0 131.135 43.88" enable-background="new 0 0 131.135 43.88" xml:space="preserve">
<g>
	<path fill="#F5CA23" d="M103.89,18.008l-0.484,6.484l4.7-1.33"/>
	<path fill="#27AAE1" d="M104.815,19.105l8.784,10.945l17.065-29.18L104.815,19.105z"/>
	<path fill="#DCDCDC" d="M126.592,3.426l-15.197,24.337l1.826,2.287l16.975-29.18L126.592,3.426z"/>
	<path fill="#27AAE1" d="M104.542,18.936l-8.657-9.892l34.311-8.172L104.542,18.936z"/>
	<path fill="#262B56" d="M131.093,0.926c0.013-0.035,0.022-0.071,0.03-0.108V0.813c0.007-0.037,0.011-0.073,0.012-0.11V0.697
		c0-0.037-0.002-0.074-0.008-0.11V0.583c-0.006-0.035-0.014-0.069-0.025-0.103l-0.004-0.011c-0.007-0.022-0.016-0.044-0.025-0.066
		l-0.014-0.028l-0.008-0.015c-0.016-0.03-0.035-0.059-0.056-0.086l-0.009-0.011c-0.021-0.028-0.046-0.055-0.072-0.079l-0.005-0.005
		l-0.005-0.003c-0.025-0.024-0.055-0.045-0.084-0.065l-0.01-0.007c-0.03-0.019-0.062-0.035-0.094-0.048l-0.012-0.006
		c-0.033-0.013-0.066-0.023-0.1-0.031l-0.01-0.003c-0.035-0.007-0.07-0.013-0.104-0.015h-0.011
		c-0.066-0.004-0.134,0.001-0.199,0.017l-17.825,4.28c-0.371,0.089-0.6,0.463-0.511,0.834c0.09,0.371,0.463,0.6,0.834,0.51l0,0
		l14.348-3.447l-0.88,0.624l-21.462,15.236l-7.539-8.684l12.706-3.051c0.371-0.089,0.6-0.462,0.511-0.833
		c-0.09-0.371-0.463-0.6-0.834-0.51L95.817,8.295c-0.371,0.089-0.6,0.462-0.511,0.833c0.026,0.107,0.077,0.207,0.149,0.291
		l7.432,8.562l-0.472,6.35c-0.028,0.38,0.256,0.712,0.636,0.74c0.082,0.007,0.164-0.003,0.243-0.024l4.345-1.236l5.251,6.585
		c0.238,0.299,0.674,0.349,0.973,0.11c0.067-0.055,0.125-0.12,0.168-0.194l3.15-5.423c0.18-0.337,0.051-0.756-0.286-0.936
		c-0.32-0.17-0.719-0.064-0.911,0.243l-2.643,4.547l-7.671-9.619l22.573-16.026l-10.783,18.557c-0.18,0.337-0.052,0.756,0.285,0.937
		c0.32,0.17,0.719,0.064,0.912-0.244l12.384-21.31V1.035c0.02-0.033,0.036-0.068,0.05-0.104L131.093,0.926z M103.869,23.446
		l0.297-3.993l2.54,3.186L103.869,23.446L103.869,23.446z"/>
	<path fill="#262B56" d="M99.589,20.379c0.225,0.308,0.158,0.739-0.15,0.964v0c-0.141,0.102-0.277,0.208-0.41,0.315
		c-0.294,0.242-0.729,0.199-0.971-0.096c0,0-0.001-0.001-0.002-0.002c-0.241-0.295-0.197-0.73,0.098-0.971c0,0,0,0,0,0
		c0.152-0.124,0.309-0.245,0.469-0.36C98.931,20.004,99.362,20.071,99.589,20.379L99.589,20.379z M95.291,29.573l-0.028,0.001
		c-0.371,0-0.676-0.292-0.691-0.662c-0.015-0.379-0.014-0.758,0.006-1.137c0.035-0.381,0.373-0.66,0.753-0.625
		c0.358,0.033,0.632,0.336,0.628,0.695c-0.018,0.337-0.019,0.674-0.004,1.011C95.969,29.237,95.672,29.559,95.291,29.573z
		 M92.372,32.747c0.367-0.104,0.75,0.11,0.854,0.478c0.104,0.368-0.109,0.751-0.478,0.854c-0.023,0.007-0.047,0.013-0.071,0.017
		c-0.337,0.076-0.67,0.164-0.988,0.262c-0.365,0.111-0.752-0.093-0.864-0.457s0.092-0.75,0.456-0.862
		c0-0.001,0.001-0.001,0.001-0.001C91.634,32.928,92.002,32.831,92.372,32.747z M88.104,34.522c0.328-0.194,0.753-0.085,0.947,0.243
		c0.178,0.302,0.104,0.688-0.175,0.902c-0.278,0.187-0.544,0.389-0.789,0.6c-0.288,0.25-0.724,0.219-0.974-0.068
		c0,0-0.001-0.002-0.002-0.002c-0.249-0.288-0.219-0.724,0.07-0.973c0-0.001,0.001-0.002,0.002-0.002
		C87.472,34.976,87.78,34.74,88.104,34.522z M104.351,36.435c-0.186-0.24-0.398-0.457-0.636-0.646
		c-0.296-0.241-0.339-0.677-0.098-0.972s0.677-0.34,0.972-0.098c0.34,0.276,0.633,0.574,0.866,0.884
		c0.229,0.304,0.169,0.736-0.135,0.966c-0.12,0.092-0.267,0.141-0.417,0.141C104.687,36.709,104.481,36.607,104.351,36.435z
		 M85.933,37.73c0.346,0.162,0.493,0.573,0.33,0.918c0,0,0,0,0,0.001c-0.139,0.296-0.258,0.601-0.357,0.912
		c-0.138,0.356-0.539,0.532-0.895,0.395c-0.324-0.126-0.505-0.474-0.422-0.811c0.118-0.372,0.26-0.737,0.426-1.084
		c0.162-0.345,0.574-0.493,0.92-0.33L85.933,37.73z M95.711,25.23c-0.353-0.146-0.52-0.549-0.374-0.901
		c0-0.001,0.001-0.001,0.001-0.002c0.149-0.356,0.319-0.704,0.511-1.041c0.207-0.321,0.635-0.415,0.957-0.209
		c0.298,0.19,0.403,0.577,0.244,0.894c-0.163,0.286-0.309,0.582-0.436,0.887C96.468,25.21,96.063,25.377,95.711,25.23z
		 M100.999,34.424c-0.325-0.104-0.654-0.194-0.986-0.272c-0.371-0.089-0.6-0.461-0.512-0.832s0.461-0.601,0.832-0.513
		c0.372,0.089,0.738,0.189,1.086,0.301c0.363,0.115,0.564,0.504,0.448,0.868C101.751,34.339,101.362,34.539,100.999,34.424z
		 M101.646,39.442c0.336,0.181,0.463,0.6,0.281,0.936c-0.18,0.336-0.599,0.462-0.935,0.281l0,0
		c-0.349-0.188-0.681-0.407-0.994-0.651c-0.302-0.232-0.356-0.667-0.124-0.969c0.234-0.303,0.668-0.357,0.97-0.124l0,0
		C101.114,39.125,101.385,39.303,101.646,39.442z M105.397,38.51c0.334,0.184,0.457,0.604,0.273,0.938c0,0,0,0-0.001,0.001
		c-0.206,0.386-0.478,0.733-0.8,1.028c-0.283,0.254-0.721,0.23-0.975-0.053c0-0.002-0.001-0.002-0.002-0.002
		c-0.254-0.285-0.229-0.721,0.055-0.975c0,0,0-0.001,0.001-0.001c0.186-0.166,0.358-0.39,0.509-0.664
		C104.643,38.447,105.063,38.326,105.397,38.51L105.397,38.51z M97.58,33.066c-0.017,0.381-0.337,0.677-0.718,0.664
		c-0.103-0.004-0.206-0.008-0.309-0.01c-0.248,0.182-0.585,0.18-0.83-0.006c-0.378-0.049-0.645-0.396-0.596-0.773
		c0.014-0.105,0.051-0.206,0.109-0.294l-0.094-0.313c-0.105-0.367,0.106-0.75,0.475-0.855c0.367-0.106,0.75,0.105,0.855,0.473l0,0
		c0.037,0.13,0.076,0.26,0.117,0.389c0.109,0.002,0.217,0.006,0.325,0.011C97.298,32.364,97.597,32.686,97.58,33.066z
		 M98.167,35.786c0.18,0.296,0.37,0.584,0.564,0.858c0.222,0.311,0.148,0.741-0.162,0.962c-0.117,0.083-0.257,0.128-0.4,0.128
		c-0.225,0-0.436-0.107-0.564-0.29c-0.213-0.3-0.422-0.615-0.619-0.937c-0.198-0.326-0.096-0.752,0.23-0.951
		C97.542,35.358,97.968,35.461,98.167,35.786L98.167,35.786L98.167,35.786z M85.519,42.614c0.004,0.172,0.015,0.347,0.027,0.522
		c0.028,0.381-0.258,0.713-0.639,0.741s-0.713-0.258-0.741-0.639c-0.015-0.194-0.024-0.39-0.03-0.582
		c-0.012-0.382,0.288-0.7,0.67-0.712C85.187,41.934,85.507,42.232,85.519,42.614z"/>
</g>
<g>
	<path fill="#262B56" d="M15.794,17.885v11.261H6.808c-4.481,0-6.689-1.509-6.689-4.797c0-1.396,0.406-3.085,0.586-4.031l2.41,0.451
		c-0.181,0.923-0.541,2.41-0.541,3.604c0,1.847,0.924,2.567,4.234,2.567h6.531v-9.054H15.794z M7.258,17.84H4.804v-2.612h2.454
		V17.84z M11.109,17.84H8.654v-2.612h2.455V17.84z"/>
	<path fill="#262B56" d="M34.018,28.042c0,0.676-0.09,1.104-0.45,1.104h-15.18v-2.207h3.423v-10.63h2.455v10.63h4.279V13.201h2.454
		v13.738h2.568C33.928,26.939,34.018,27.367,34.018,28.042z"/>
	<path fill="#262B56" d="M51.679,22.907v6.239h-5.563c-0.788,0-1.6-0.248-2.32-0.698c-0.676,0.473-1.554,0.698-2.702,0.698h-7.522
		c-0.383,0-0.45-0.428-0.45-1.104s0.067-1.104,0.45-1.104h2.928v-7.928h2.455v7.928h2.14c1.419,0,1.734-0.405,1.734-3.018v-4.91
		h2.454v4.91c0,1.014-0.09,1.869-0.27,2.567c0.428,0.338,0.743,0.451,1.104,0.451h3.107v-4.032c0-0.675-0.27-2.703-0.63-4.639
		l2.432-0.383C51.296,19.484,51.679,21.917,51.679,22.907z"/>
	<path fill="#262B56" d="M55.399,13.201h2.455v15.945h-2.455V13.201z"/>
	<path fill="#262B56" d="M67.495,28.042c0,0.676-0.09,1.104-0.45,1.104h-2.59v0.946c0,2.771-1.689,4.617-4.122,4.617
		c-0.383,0-0.855-0.045-1.261-0.09l0.292-2.207c0.451,0.045,0.767,0.09,0.969,0.09c1.014,0,1.667-0.833,1.667-2.41V17.885h2.455
		v9.054h2.59C67.405,26.939,67.495,27.367,67.495,28.042z"/>
	<path fill="#262B56" d="M80.312,23.628v5.518H67.046c-0.383,0-0.45-0.428-0.45-1.104s0.067-1.104,0.45-1.104h2.771
		c-0.136-0.856-0.226-1.937-0.226-3.085c0-2.185,0.383-4.324,0.653-5.36c0.676-0.271,2.297-0.608,4.144-0.608
		C78.329,17.885,80.312,19.417,80.312,23.628z M77.856,26.939v-3.311c0-2.792-0.721-3.536-3.469-3.536
		c-0.698,0-1.419,0.067-2.026,0.158c-0.181,1.104-0.315,2.432-0.315,3.604c0,1.058,0.112,2.229,0.225,3.085H77.856z"/>
</g>
</svg>
