<?xml version="1.0" encoding="utf-8"?>
<!-- Generator: Adobe Illustrator 16.0.0, SVG Export Plug-In . SVG Version: 6.00 Build 0)  -->
<!DOCTYPE svg PUBLIC "-//W3C//DTD SVG 1.1//EN" "http://www.w3.org/Graphics/SVG/1.1/DTD/svg11.dtd">
<svg version="1.1" id="Layer_1" xmlns="http://www.w3.org/2000/svg" xmlns:xlink="http://www.w3.org/1999/xlink" x="0px" y="0px"
	 width="32px" height="32px" viewBox="0 0 32 32" enable-background="new 0 0 32 32" xml:space="preserve">
<g>
	<path fill="#262B56" d="M31.304,13.227h-5.173V0.885c0-0.385-0.313-0.699-0.7-0.697c-0.183,0.001-0.361,0.073-0.49,0.204
		L22.96,2.37L20.98,0.392c-0.272-0.273-0.717-0.273-0.987-0.001c0,0,0,0,0,0.001l-1.98,1.978l-1.978-1.978
		c-0.273-0.273-0.715-0.273-0.989-0.001c0,0-0.001,0-0.001,0.001L13.065,2.37l-1.978-1.978c-0.273-0.273-0.716-0.273-0.988-0.001
		c-0.001,0-0.001,0-0.001,0.001L8.12,2.37L6.141,0.392C5.869,0.119,5.425,0.119,5.152,0.391c0,0-0.001,0-0.001,0.001L3.172,2.37
		L1.194,0.392C0.92,0.119,0.479,0.12,0.206,0.393C0.069,0.528-0.003,0.713,0,0.905V28.18c0,2.004,1.63,3.633,3.634,3.633h24.732
		c2.005,0,3.634-1.629,3.634-3.633V13.926C32.001,13.542,31.688,13.228,31.304,13.227z M3.635,30.415
		c-1.234-0.004-2.233-1.003-2.236-2.235V2.573l1.28,1.28c0.271,0.273,0.714,0.273,0.987,0l1.981-1.981l1.978,1.981
		c0.273,0.273,0.715,0.273,0.987,0l1.981-1.981l1.979,1.981c0.272,0.273,0.714,0.273,0.987,0l1.981-1.98l1.979,1.981
		c0.274,0.273,0.716,0.273,0.987,0l1.979-1.981l1.979,1.981c0.272,0.273,0.715,0.273,0.986,0l1.281-1.282V28.18
		c0,0.842,0.289,1.616,0.773,2.235H3.635z M30.604,28.18c-0.074,1.234-1.137,2.176-2.371,2.1c-1.131-0.069-2.03-0.969-2.1-2.1
		V14.625h4.471V28.18z"/>
	<path fill="#27AAE1" stroke="#27AAE1" stroke-width="0.7" stroke-miterlimit="10" d="M20.431,16.978H9.367
		c-0.386,0-0.7,0.313-0.7,0.697c0,0.386,0.312,0.701,0.698,0.701c0,0,0,0,0.001,0h11.068c0.388,0,0.701-0.313,0.701-0.7
		c0-0.386-0.313-0.697-0.698-0.698h-0.003H20.431z M20.431,9.059H9.367c-0.386,0-0.7,0.313-0.7,0.699c0,0.386,0.312,0.699,0.698,0.7
		c0,0,0,0,0.001,0h11.068c0.388,0,0.701-0.313,0.701-0.699c0-0.386-0.313-0.699-0.698-0.7h-0.003H20.431z M20.438,24.126H9.371
		c-0.387,0-0.7,0.313-0.7,0.699c0,0.384,0.312,0.698,0.699,0.698c0,0,0,0,0.001,0h11.068c0.388,0.002,0.7-0.313,0.7-0.698
		c0-0.385-0.312-0.699-0.698-0.699H20.438z"/>
</g>
<path fill="#F5CA23" stroke="#F5CA23" stroke-width="0.7" stroke-miterlimit="10" d="M6.154,17.183
	c-0.275-0.271-0.714-0.271-0.988,0c-0.27,0.273-0.27,0.712,0,0.986c0.274,0.271,0.713,0.271,0.988,0
	C6.423,17.895,6.423,17.456,6.154,17.183z"/>
<path fill="#F5CA23" stroke="#F5CA23" stroke-width="0.7" stroke-miterlimit="10" d="M6.154,9.265c-0.275-0.27-0.714-0.27-0.988,0
	c-0.27,0.275-0.27,0.713,0,0.988c0.274,0.271,0.713,0.271,0.988,0C6.423,9.978,6.423,9.54,6.154,9.265z"/>
<path fill="#F5CA23" stroke="#F5CA23" stroke-width="0.7" stroke-miterlimit="10" d="M6.188,24.331c-0.275-0.271-0.716-0.271-0.99,0
	c-0.27,0.272-0.27,0.712,0,0.987c0.274,0.271,0.714,0.271,0.99,0C6.458,25.043,6.458,24.605,6.188,24.331L6.188,24.331z"/>
</svg>
