<?xml version="1.0" encoding="utf-8"?>
<!-- Generator: Adobe Illustrator 16.0.0, SVG Export Plug-In . SVG Version: 6.00 Build 0)  -->
<!DOCTYPE svg PUBLIC "-//W3C//DTD SVG 1.1//EN" "http://www.w3.org/Graphics/SVG/1.1/DTD/svg11.dtd">
<svg version="1.1" id="Layer_1" xmlns="http://www.w3.org/2000/svg" xmlns:xlink="http://www.w3.org/1999/xlink" x="0px" y="0px"
	 width="32px" height="32px" viewBox="0 0 32 32" enable-background="new 0 0 32 32" xml:space="preserve">
<rect x="23.583" y="10.329" fill="#F5CA23" width="4.584" height="21.004"/>
<rect x="13.708" y="19.162" fill="#F5CA23" width="4.584" height="12.171"/>
<rect x="4" y="24.203" fill="#F5CA23" width="4.584" height="7.13"/>
<g>
	<path fill="#262B56" d="M30.319,30.77h-1.353V11.146c0-0.916-0.739-1.656-1.657-1.656h-3.019c-0.916,0-1.658,0.742-1.658,1.658
		v19.619h-3.428v-10.73c0-0.914-0.742-1.658-1.658-1.658H14.53c-0.917,0-1.657,0.744-1.657,1.658v10.73H9.439v-5.557
		c0-0.916-0.742-1.656-1.655-1.658H4.764c-0.914,0.002-1.655,0.742-1.655,1.658v5.557H1.682c-0.34,0-0.616,0.275-0.616,0.617
		C1.065,31.723,1.342,32,1.682,32h28.638c0.34,0,0.615-0.277,0.615-0.615C30.935,31.043,30.659,30.77,30.319,30.77L30.319,30.77z
		 M8.209,30.77h-3.87v-5.559c0-0.234,0.19-0.424,0.424-0.424h3.021c0.232,0,0.424,0.188,0.424,0.422v5.557L8.209,30.77L8.209,30.77z
		 M17.972,30.77h-3.868V20.037c0-0.234,0.189-0.424,0.424-0.424h3.021c0.234,0,0.424,0.188,0.424,0.424L17.972,30.77L17.972,30.77z
		 M27.737,30.77h-3.869V11.146c0-0.233,0.188-0.423,0.424-0.423h3.02c0.236,0,0.424,0.19,0.424,0.423v19.621h0.002V30.77z"/>
	<g>
		<path fill="#27AAE1" d="M25.323,1.104c0.02-0.339-0.238-0.629-0.576-0.648c-0.025-0.001-0.047-0.001-0.072,0h-0.027h-3.729
			c-0.34,0-0.615,0.276-0.615,0.616c0,0.339,0.275,0.615,0.615,0.615h2.301l-6.09,6.093l-2.295-2.297
			c-0.24-0.24-0.63-0.241-0.871-0.002c0,0.001-0.001,0.002-0.001,0.002L2.889,16.558c-0.239,0.241-0.237,0.632,0.003,0.872
			c0.24,0.238,0.627,0.238,0.868,0L14.398,6.79l2.295,2.295c0.24,0.242,0.629,0.244,0.871,0.003c0-0.001,0.002-0.001,0.004-0.003
			l6.523-6.523v2.082c0,0.341,0.277,0.618,0.619,0.618c0.34,0,0.615-0.277,0.615-0.618V1.135l-0.003-0.029l0,0V1.104z"/>
		<path fill="#27AAE1" d="M3.326,18.063c-0.284-0.001-0.554-0.11-0.755-0.312c-0.418-0.418-0.421-1.098-0.006-1.516L13.64,5.162
			c0.412-0.408,1.113-0.405,1.517,0l1.974,1.974l4.99-4.993h-1.201c-0.59,0-1.07-0.48-1.07-1.071c0-0.591,0.48-1.071,1.07-1.071
			h3.844c0.598,0.035,1.049,0.542,1.016,1.131l0.005,3.511c0,0.592-0.48,1.073-1.07,1.073c-0.592,0-1.074-0.481-1.074-1.073V3.661
			l-5.752,5.75c-0.406,0.405-1.113,0.401-1.516-0.006l-1.973-1.971L4.082,17.752C3.879,17.953,3.609,18.063,3.326,18.063z
			 M14.397,5.758c-0.024,0-0.071,0.006-0.112,0.046L3.211,16.879c-0.062,0.063-0.062,0.164,0.002,0.229
			c0.083,0.078,0.144,0.078,0.225-0.002l10.96-10.96l2.618,2.617c0.076,0.076,0.127,0.06,0.187,0.033l0.079-0.064l7.269-7.27v3.181
			c0,0.178,0.322,0.178,0.322,0V1.134c0.002-0.142-0.064-0.218-0.152-0.223l-3.801,0.001c-0.088,0-0.16,0.072-0.16,0.16
			c0,0.088,0.072,0.16,0.16,0.16h3.4L17.13,8.423l-2.617-2.618C14.472,5.766,14.424,5.758,14.397,5.758z"/>
	</g>
</g>
</svg>
