<?xml version="1.0" encoding="utf-8"?>
<!-- Generator: Adobe Illustrator 16.0.0, SVG Export Plug-In . SVG Version: 6.00 Build 0)  -->
<!DOCTYPE svg PUBLIC "-//W3C//DTD SVG 1.1//EN" "http://www.w3.org/Graphics/SVG/1.1/DTD/svg11.dtd">
<svg version="1.1" id="Layer_1" xmlns="http://www.w3.org/2000/svg" xmlns:xlink="http://www.w3.org/1999/xlink" x="0px" y="0px"
	 width="32px" height="32px" viewBox="0 0 32 32" enable-background="new 0 0 32 32" xml:space="preserve">
<polygon fill="#1C5CC7" points="20.625,9.969 17.938,9.781 24.313,1.094 30.906,9.563 28.25,10.125 27.344,31.156 21.5,30.844 "/>
<rect x="14.688" y="16.311" fill="#1C5CC7" width="5.938" height="14.378"/>
<rect x="8.187" y="21.167" fill="#1C5CC7" width="5.938" height="9.522"/>
<rect x="1.312" y="26.167" fill="#F5CA23" width="5.938" height="4.522"/>
<g>
	<path fill="#262B56" d="M31.816,9.417l-6.695-9.038c-0.309-0.416-0.896-0.503-1.313-0.195c-0.074,0.056-0.141,0.121-0.195,0.195
		l-6.691,9.038c-0.309,0.416-0.221,1.002,0.193,1.311c0.16,0.12,0.357,0.184,0.559,0.185h2.41v4.533
		c-0.484-0.251-1.025-0.383-1.572-0.382h-1.674c-1.902,0-3.449,1.545-3.449,3.447v1.955c-0.486-0.25-1.025-0.382-1.572-0.382h-1.671
		c-1.902,0-3.449,1.547-3.449,3.447v1.953c-0.487-0.25-1.026-0.381-1.574-0.381H3.449c-1.9,0-3.447,1.547-3.447,3.445v2.514
		C0,31.58,0.42,32,0.938,32h26.777c0.518,0,0.938-0.42,0.938-0.938l0,0V10.913h2.41c0.52-0.001,0.938-0.422,0.938-0.939
		c0-0.2-0.063-0.395-0.184-0.555V9.417L31.816,9.417z M1.876,28.552c0-0.866,0.706-1.573,1.571-1.573h1.674
		c0.868,0,1.574,0.707,1.574,1.573v1.573H1.876V28.552z M8.569,28.552v-5.021c0-0.868,0.706-1.572,1.574-1.572h1.673
		c0.867,0,1.572,0.704,1.572,1.572v6.594H8.571v-1.573H8.569z M15.265,23.531V18.51c0-0.867,0.706-1.572,1.573-1.572h1.674
		c0.867,0,1.572,0.705,1.572,1.572v11.614h-4.819V23.531z M27.715,9.039c-0.516-0.001-0.938,0.417-0.938,0.935v0.001v20.15h-4.818
		V9.975c0-0.518-0.418-0.937-0.936-0.937c-0.002,0-0.002,0-0.002,0h-1.486l4.834-6.524l4.832,6.524L27.715,9.039L27.715,9.039z"/>
</g>
</svg>
