<?xml version="1.0" encoding="utf-8"?>
<!-- Generator: Adobe Illustrator 16.0.0, SVG Export Plug-In . SVG Version: 6.00 Build 0)  -->
<!DOCTYPE svg PUBLIC "-//W3C//DTD SVG 1.1//EN" "http://www.w3.org/Graphics/SVG/1.1/DTD/svg11.dtd">
<svg version="1.1" id="Layer_1" xmlns="http://www.w3.org/2000/svg" xmlns:xlink="http://www.w3.org/1999/xlink" x="0px" y="0px"
	 width="32px" height="32px" viewBox="0 0 32 32" enable-background="new 0 0 32 32" xml:space="preserve">
<rect x="11.438" y="9.938" fill="#F5CA23" width="9.531" height="12.531"/>
<path fill="#262B56" d="M16.43,32c-2.708,0-4.983-0.264-6.83-0.791c-1.774-0.486-3.415-1.37-4.802-2.579
	c-2.73-2.388-4.094-6.606-4.094-12.664c0-5.368,1.336-9.37,4.009-12.009C7.386,1.318,11.291,0,16.43,0
	c5.048,0,8.784,1.193,11.216,3.579c2.432,2.387,3.649,6.011,3.649,10.872v0.379c0,2.594-0.226,4.635-0.673,6.125
	c-0.446,1.492-1.111,2.555-1.995,3.186c-0.882,0.629-2.024,0.944-3.423,0.944c-1.104,0-2.021-0.172-2.755-0.517
	c-0.688-0.303-1.25-0.838-1.582-1.516c-2.085,1.332-3.992,1.997-5.711,1.997c-1.997,0-3.521-0.62-4.578-1.858
	c-1.053-1.238-1.582-3.383-1.582-6.435c0-2.18,0.223-3.937,0.671-5.266c0.447-1.33,1.17-2.305,2.167-2.925
	c0.999-0.619,2.335-0.929,4.01-0.929c0.917,0,1.961,0.206,3.131,0.619l0.584,0.241V7.98h3.199v6.436
	c0,3.764,0.105,5.977,0.313,6.641c0.229,0.594,0.492,0.969,0.789,1.12c0.301,0.149,0.77,0.222,1.412,0.222
	c0.826,0,1.444-0.35,1.857-1.049c0.414-0.697,0.671-1.565,0.775-2.599c0.101-1.031,0.154-2.34,0.154-3.923v-0.41
	c0-2.731-0.396-4.943-1.188-6.641c-0.756-1.663-2.087-2.995-3.751-3.751c-1.709-0.803-3.95-1.205-6.727-1.205
	c-4.197,0-7.322,1.084-9.376,3.252c-2.054,2.168-3.08,5.533-3.08,10.1c0,3.118,0.425,5.626,1.273,7.519
	c0.85,1.895,2.178,3.279,3.991,4.164c1.813,0.879,4.222,1.324,7.227,1.324l4.92-0.344l0.104,2.855C19.32,31.896,17.646,32,16.43,32z
	 M15.397,22.229c0.939,0,2.419-0.446,4.439-1.342c-0.186-0.986-0.277-2.731-0.277-5.229v-4.612
	c-1.192-0.389-2.224-0.584-3.095-0.584c-1.102,0-1.957,0.2-2.563,0.602c-0.61,0.402-1.04,1.032-1.291,1.892
	c-0.252,0.86-0.38,2.037-0.38,3.527C12.23,20.313,13.285,22.229,15.397,22.229z"/>
</svg>
