<?xml version="1.0" encoding="utf-8"?>
<!-- Generator: Adobe Illustrator 16.0.0, SVG Export Plug-In . SVG Version: 6.00 Build 0)  -->
<!DOCTYPE svg PUBLIC "-//W3C//DTD SVG 1.1//EN" "http://www.w3.org/Graphics/SVG/1.1/DTD/svg11.dtd">
<svg version="1.1" id="Layer_1" xmlns="http://www.w3.org/2000/svg" xmlns:xlink="http://www.w3.org/1999/xlink" x="0px" y="0px"
	 width="32px" height="32px" viewBox="0 0 32 32" enable-background="new 0 0 32 32" xml:space="preserve">
<polygon fill="#F5CA23" points="26.376,11.083 18.792,11.083 18.792,3.543 "/>
<g>
	<path fill="#262B56" d="M28.794,31.089l-1.461-1.442V10.979l-0.268-0.265l-2.43-2.402V0H3.048v27.732h2.697v2.666h20.827
		l1.456,1.442c0.214,0.211,0.556,0.211,0.767,0c0.207-0.205,0.209-0.539,0.004-0.747C28.798,31.094,28.794,31.092,28.794,31.089z
		 M25.491,10.667h-6.254V4.488l5.398,5.333L25.491,10.667z M4.126,26.666V1.067h19.427v6.178l-4.365-4.314L18.92,2.667H5.747v23.999
		L4.126,26.666L4.126,26.666z M6.826,29.333V3.734h11.333v8h8.094v16.845l-4.055-4.007c0.938-1.098,1.51-2.516,1.51-4.063
		c0-3.479-2.864-6.308-6.385-6.308s-6.382,2.829-6.382,6.308c0,3.478,2.863,6.31,6.382,6.31c1.566,0,3-0.564,4.111-1.492
		l4.057,4.008H6.828L6.826,29.333L6.826,29.333z M17.323,25.75c-2.925,0-5.303-2.352-5.303-5.243c0-2.888,2.38-5.24,5.303-5.24
		c2.926,0,5.305,2.354,5.305,5.24C22.628,23.398,20.249,25.75,17.323,25.75z"/>
	<g>
		<path fill="#27AAE1" d="M14.18,19.449h3.243c0.429,0,0.78-0.351,0.783-0.785c-0.003-0.43-0.354-0.78-0.789-0.78h-3.243
			c-0.43,0-0.782,0.351-0.785,0.783C13.391,19.099,13.746,19.449,14.18,19.449z"/>
		<path fill="#27AAE1" d="M20.655,21.083h-6.478c-0.432,0-0.785,0.351-0.788,0.783c0,0.433,0.354,0.784,0.79,0.784h6.476
			c0.433,0,0.786-0.351,0.789-0.786C21.441,21.434,21.088,21.083,20.655,21.083z"/>
	</g>
</g>
</svg>
